<mxfile host="app.diagrams.net" modified="2023-11-16T22:59:36.764Z" agent="Mozilla/5.0 (X11; Ubuntu; Linux x86_64; rv:109.0) Gecko/20100101 Firefox/118.0" etag="XO91Pk7njq_DU_sGdKx7" version="22.1.2" type="device">
  <diagram id="C5RBs43oDa-KdzZeNtuy" name="Page-1">
    <mxGraphModel dx="1360" dy="795" grid="1" gridSize="10" guides="1" tooltips="1" connect="1" arrows="1" fold="1" page="1" pageScale="1" pageWidth="827" pageHeight="1169" math="0" shadow="0">
      <root>
        <mxCell id="WIyWlLk6GJQsqaUBKTNV-0" />
        <mxCell id="WIyWlLk6GJQsqaUBKTNV-1" parent="WIyWlLk6GJQsqaUBKTNV-0" />
        <mxCell id="oMIvc-D60YUNb1tI9s7J-0" value="" style="rounded=0;whiteSpace=wrap;html=1;fillColor=#f8cecc;strokeColor=#b85450;" vertex="1" parent="WIyWlLk6GJQsqaUBKTNV-1">
          <mxGeometry x="10" y="280" width="220" height="400" as="geometry" />
        </mxCell>
        <mxCell id="oMIvc-D60YUNb1tI9s7J-6" style="edgeStyle=orthogonalEdgeStyle;rounded=0;orthogonalLoop=1;jettySize=auto;html=1;" edge="1" parent="WIyWlLk6GJQsqaUBKTNV-1" source="oMIvc-D60YUNb1tI9s7J-1" target="oMIvc-D60YUNb1tI9s7J-2">
          <mxGeometry relative="1" as="geometry" />
        </mxCell>
        <mxCell id="oMIvc-D60YUNb1tI9s7J-7" style="edgeStyle=orthogonalEdgeStyle;rounded=0;orthogonalLoop=1;jettySize=auto;html=1;entryX=0.5;entryY=0;entryDx=0;entryDy=0;" edge="1" parent="WIyWlLk6GJQsqaUBKTNV-1" source="oMIvc-D60YUNb1tI9s7J-1" target="oMIvc-D60YUNb1tI9s7J-4">
          <mxGeometry relative="1" as="geometry" />
        </mxCell>
        <mxCell id="oMIvc-D60YUNb1tI9s7J-8" style="edgeStyle=orthogonalEdgeStyle;rounded=0;orthogonalLoop=1;jettySize=auto;html=1;" edge="1" parent="WIyWlLk6GJQsqaUBKTNV-1" source="oMIvc-D60YUNb1tI9s7J-1" target="oMIvc-D60YUNb1tI9s7J-5">
          <mxGeometry relative="1" as="geometry" />
        </mxCell>
        <mxCell id="oMIvc-D60YUNb1tI9s7J-1" value="&lt;font style=&quot;font-size: 26px;&quot;&gt;INPUT&lt;/font&gt;" style="rounded=1;whiteSpace=wrap;html=1;fillColor=#dae8fc;strokeColor=#6c8ebf;" vertex="1" parent="WIyWlLk6GJQsqaUBKTNV-1">
          <mxGeometry x="20" y="290" width="200" height="40" as="geometry" />
        </mxCell>
        <mxCell id="oMIvc-D60YUNb1tI9s7J-11" style="edgeStyle=orthogonalEdgeStyle;rounded=0;orthogonalLoop=1;jettySize=auto;html=1;" edge="1" parent="WIyWlLk6GJQsqaUBKTNV-1" source="oMIvc-D60YUNb1tI9s7J-2" target="oMIvc-D60YUNb1tI9s7J-10">
          <mxGeometry relative="1" as="geometry" />
        </mxCell>
        <mxCell id="oMIvc-D60YUNb1tI9s7J-2" value="&lt;font style=&quot;font-size: 18px;&quot;&gt;Q = &lt;/font&gt;&lt;br&gt;&lt;div&gt;&lt;font style=&quot;font-size: 18px;&quot;&gt;Linear&lt;/font&gt;&lt;/div&gt;" style="rounded=0;whiteSpace=wrap;html=1;fillColor=#fff2cc;strokeColor=#d6b656;" vertex="1" parent="WIyWlLk6GJQsqaUBKTNV-1">
          <mxGeometry x="20" y="400" width="60" height="130" as="geometry" />
        </mxCell>
        <mxCell id="oMIvc-D60YUNb1tI9s7J-14" style="edgeStyle=orthogonalEdgeStyle;rounded=0;orthogonalLoop=1;jettySize=auto;html=1;" edge="1" parent="WIyWlLk6GJQsqaUBKTNV-1" source="oMIvc-D60YUNb1tI9s7J-4" target="oMIvc-D60YUNb1tI9s7J-10">
          <mxGeometry relative="1" as="geometry" />
        </mxCell>
        <mxCell id="oMIvc-D60YUNb1tI9s7J-4" value="&lt;div&gt;&lt;font style=&quot;font-size: 18px;&quot;&gt;K = &lt;/font&gt;&lt;/div&gt;&lt;div&gt;&lt;font style=&quot;font-size: 18px;&quot;&gt;Linear&lt;/font&gt;&lt;/div&gt;" style="rounded=0;whiteSpace=wrap;html=1;fillColor=#fff2cc;strokeColor=#d6b656;" vertex="1" parent="WIyWlLk6GJQsqaUBKTNV-1">
          <mxGeometry x="90" y="400" width="60" height="130" as="geometry" />
        </mxCell>
        <mxCell id="oMIvc-D60YUNb1tI9s7J-15" style="edgeStyle=orthogonalEdgeStyle;rounded=0;orthogonalLoop=1;jettySize=auto;html=1;entryX=0.5;entryY=0;entryDx=0;entryDy=0;" edge="1" parent="WIyWlLk6GJQsqaUBKTNV-1" source="oMIvc-D60YUNb1tI9s7J-5" target="oMIvc-D60YUNb1tI9s7J-10">
          <mxGeometry relative="1" as="geometry" />
        </mxCell>
        <mxCell id="oMIvc-D60YUNb1tI9s7J-5" value="&lt;font style=&quot;font-size: 18px;&quot;&gt;V = &lt;/font&gt;&lt;br&gt;&lt;div&gt;&lt;font style=&quot;font-size: 18px;&quot;&gt;Linear&lt;/font&gt;&lt;/div&gt;" style="rounded=0;whiteSpace=wrap;html=1;fillColor=#fff2cc;strokeColor=#d6b656;" vertex="1" parent="WIyWlLk6GJQsqaUBKTNV-1">
          <mxGeometry x="160" y="400" width="60" height="130" as="geometry" />
        </mxCell>
        <mxCell id="oMIvc-D60YUNb1tI9s7J-10" value="&lt;font style=&quot;font-size: 18px;&quot;&gt;MultiHead Attention&lt;/font&gt;" style="rounded=0;whiteSpace=wrap;html=1;fillColor=#d5e8d4;strokeColor=#82b366;" vertex="1" parent="WIyWlLk6GJQsqaUBKTNV-1">
          <mxGeometry x="30" y="585" width="180" height="85" as="geometry" />
        </mxCell>
        <mxCell id="oMIvc-D60YUNb1tI9s7J-16" value="&lt;font style=&quot;font-size: 27px;&quot;&gt;AtteMtion&lt;/font&gt;" style="text;html=1;align=center;verticalAlign=middle;resizable=0;points=[];autosize=1;strokeColor=none;fillColor=none;" vertex="1" parent="WIyWlLk6GJQsqaUBKTNV-1">
          <mxGeometry x="50" y="230" width="140" height="50" as="geometry" />
        </mxCell>
        <mxCell id="oMIvc-D60YUNb1tI9s7J-18" value="" style="rounded=0;whiteSpace=wrap;html=1;" vertex="1" parent="WIyWlLk6GJQsqaUBKTNV-1">
          <mxGeometry x="240" y="280" width="320" height="400" as="geometry" />
        </mxCell>
        <mxCell id="oMIvc-D60YUNb1tI9s7J-19" value="&lt;font style=&quot;font-size: 30px;&quot;&gt;Model&lt;/font&gt;" style="text;html=1;align=center;verticalAlign=middle;resizable=0;points=[];autosize=1;strokeColor=none;fillColor=none;" vertex="1" parent="WIyWlLk6GJQsqaUBKTNV-1">
          <mxGeometry x="350" y="230" width="110" height="50" as="geometry" />
        </mxCell>
        <mxCell id="oMIvc-D60YUNb1tI9s7J-20" value="" style="endArrow=classic;html=1;rounded=0;entryX=0.5;entryY=0;entryDx=0;entryDy=0;" edge="1" parent="WIyWlLk6GJQsqaUBKTNV-1" target="oMIvc-D60YUNb1tI9s7J-21">
          <mxGeometry width="50" height="50" relative="1" as="geometry">
            <mxPoint x="320" y="230" as="sourcePoint" />
            <mxPoint x="350" y="200" as="targetPoint" />
          </mxGeometry>
        </mxCell>
        <mxCell id="oMIvc-D60YUNb1tI9s7J-26" style="edgeStyle=orthogonalEdgeStyle;rounded=0;orthogonalLoop=1;jettySize=auto;html=1;entryX=0.5;entryY=0;entryDx=0;entryDy=0;" edge="1" parent="WIyWlLk6GJQsqaUBKTNV-1" source="oMIvc-D60YUNb1tI9s7J-21" target="oMIvc-D60YUNb1tI9s7J-25">
          <mxGeometry relative="1" as="geometry" />
        </mxCell>
        <mxCell id="oMIvc-D60YUNb1tI9s7J-21" value="&lt;font style=&quot;font-size: 20px;&quot;&gt;GatConv&lt;/font&gt;" style="rounded=0;whiteSpace=wrap;html=1;fillColor=#d5e8d4;strokeColor=#82b366;" vertex="1" parent="WIyWlLk6GJQsqaUBKTNV-1">
          <mxGeometry x="260" y="290" width="120" height="60" as="geometry" />
        </mxCell>
        <mxCell id="oMIvc-D60YUNb1tI9s7J-24" value="&lt;font style=&quot;font-size: 15px;&quot;&gt;GNN &lt;br&gt;&lt;/font&gt;" style="text;html=1;align=center;verticalAlign=middle;resizable=0;points=[];autosize=1;strokeColor=none;fillColor=none;" vertex="1" parent="WIyWlLk6GJQsqaUBKTNV-1">
          <mxGeometry x="260" y="230" width="60" height="30" as="geometry" />
        </mxCell>
        <mxCell id="oMIvc-D60YUNb1tI9s7J-31" value="" style="edgeStyle=orthogonalEdgeStyle;rounded=0;orthogonalLoop=1;jettySize=auto;html=1;" edge="1" parent="WIyWlLk6GJQsqaUBKTNV-1" source="oMIvc-D60YUNb1tI9s7J-25" target="oMIvc-D60YUNb1tI9s7J-30">
          <mxGeometry relative="1" as="geometry" />
        </mxCell>
        <mxCell id="oMIvc-D60YUNb1tI9s7J-25" value="&lt;span&gt;&lt;font style=&quot;font-size: 16px;&quot;&gt;Relu&lt;/font&gt;&lt;/span&gt;" style="rounded=0;whiteSpace=wrap;html=1;fontStyle=1" vertex="1" parent="WIyWlLk6GJQsqaUBKTNV-1">
          <mxGeometry x="280" y="420" width="80" height="20" as="geometry" />
        </mxCell>
        <mxCell id="oMIvc-D60YUNb1tI9s7J-34" style="edgeStyle=orthogonalEdgeStyle;rounded=0;orthogonalLoop=1;jettySize=auto;html=1;entryX=0.5;entryY=0;entryDx=0;entryDy=0;" edge="1" parent="WIyWlLk6GJQsqaUBKTNV-1" source="oMIvc-D60YUNb1tI9s7J-30" target="oMIvc-D60YUNb1tI9s7J-32">
          <mxGeometry relative="1" as="geometry" />
        </mxCell>
        <mxCell id="oMIvc-D60YUNb1tI9s7J-30" value="&lt;font style=&quot;font-size: 20px;&quot;&gt;GatConv&lt;/font&gt;" style="rounded=0;whiteSpace=wrap;html=1;fillColor=#d5e8d4;strokeColor=#82b366;" vertex="1" parent="WIyWlLk6GJQsqaUBKTNV-1">
          <mxGeometry x="260" y="510" width="120" height="60" as="geometry" />
        </mxCell>
        <mxCell id="oMIvc-D60YUNb1tI9s7J-32" value="&lt;b&gt;&lt;font style=&quot;font-size: 16px;&quot;&gt;Relu&lt;/font&gt;&lt;/b&gt;" style="rounded=0;whiteSpace=wrap;html=1;" vertex="1" parent="WIyWlLk6GJQsqaUBKTNV-1">
          <mxGeometry x="280" y="640" width="80" height="20" as="geometry" />
        </mxCell>
        <mxCell id="oMIvc-D60YUNb1tI9s7J-39" style="edgeStyle=orthogonalEdgeStyle;rounded=0;orthogonalLoop=1;jettySize=auto;html=1;" edge="1" parent="WIyWlLk6GJQsqaUBKTNV-1" source="oMIvc-D60YUNb1tI9s7J-35" target="oMIvc-D60YUNb1tI9s7J-38">
          <mxGeometry relative="1" as="geometry" />
        </mxCell>
        <mxCell id="oMIvc-D60YUNb1tI9s7J-35" value="&lt;font style=&quot;font-size: 20px;&quot;&gt;Global Mean Pooling&lt;/font&gt;" style="rounded=0;whiteSpace=wrap;html=1;fillColor=#e1d5e7;strokeColor=#9673a6;" vertex="1" parent="WIyWlLk6GJQsqaUBKTNV-1">
          <mxGeometry x="425" y="310" width="120" height="60" as="geometry" />
        </mxCell>
        <mxCell id="oMIvc-D60YUNb1tI9s7J-36" style="edgeStyle=orthogonalEdgeStyle;rounded=0;orthogonalLoop=1;jettySize=auto;html=1;exitX=1;exitY=0.5;exitDx=0;exitDy=0;entryX=0.5;entryY=0;entryDx=0;entryDy=0;" edge="1" parent="WIyWlLk6GJQsqaUBKTNV-1" source="oMIvc-D60YUNb1tI9s7J-32" target="oMIvc-D60YUNb1tI9s7J-35">
          <mxGeometry relative="1" as="geometry" />
        </mxCell>
        <mxCell id="oMIvc-D60YUNb1tI9s7J-37" style="edgeStyle=orthogonalEdgeStyle;rounded=0;orthogonalLoop=1;jettySize=auto;html=1;exitX=0.5;exitY=1;exitDx=0;exitDy=0;" edge="1" parent="WIyWlLk6GJQsqaUBKTNV-1" source="oMIvc-D60YUNb1tI9s7J-35" target="oMIvc-D60YUNb1tI9s7J-35">
          <mxGeometry relative="1" as="geometry" />
        </mxCell>
        <mxCell id="oMIvc-D60YUNb1tI9s7J-41" style="edgeStyle=orthogonalEdgeStyle;rounded=0;orthogonalLoop=1;jettySize=auto;html=1;" edge="1" parent="WIyWlLk6GJQsqaUBKTNV-1" source="oMIvc-D60YUNb1tI9s7J-38" target="oMIvc-D60YUNb1tI9s7J-40">
          <mxGeometry relative="1" as="geometry" />
        </mxCell>
        <mxCell id="oMIvc-D60YUNb1tI9s7J-38" value="&lt;b&gt;&lt;font style=&quot;font-size: 16px;&quot;&gt;Relu&lt;/font&gt;&lt;/b&gt;" style="rounded=0;whiteSpace=wrap;html=1;" vertex="1" parent="WIyWlLk6GJQsqaUBKTNV-1">
          <mxGeometry x="445" y="390" width="80" height="20" as="geometry" />
        </mxCell>
        <mxCell id="oMIvc-D60YUNb1tI9s7J-43" style="edgeStyle=orthogonalEdgeStyle;rounded=0;orthogonalLoop=1;jettySize=auto;html=1;entryX=0.5;entryY=0;entryDx=0;entryDy=0;" edge="1" parent="WIyWlLk6GJQsqaUBKTNV-1" source="oMIvc-D60YUNb1tI9s7J-40" target="oMIvc-D60YUNb1tI9s7J-42">
          <mxGeometry relative="1" as="geometry" />
        </mxCell>
        <mxCell id="oMIvc-D60YUNb1tI9s7J-40" value="&lt;font style=&quot;font-size: 20px;&quot;&gt;AtteMtion&lt;/font&gt;" style="rounded=0;whiteSpace=wrap;html=1;fillColor=#f8cecc;strokeColor=#b85450;" vertex="1" parent="WIyWlLk6GJQsqaUBKTNV-1">
          <mxGeometry x="425" y="440" width="120" height="60" as="geometry" />
        </mxCell>
        <mxCell id="oMIvc-D60YUNb1tI9s7J-45" style="edgeStyle=orthogonalEdgeStyle;rounded=0;orthogonalLoop=1;jettySize=auto;html=1;entryX=0.5;entryY=0;entryDx=0;entryDy=0;" edge="1" parent="WIyWlLk6GJQsqaUBKTNV-1" source="oMIvc-D60YUNb1tI9s7J-42" target="oMIvc-D60YUNb1tI9s7J-44">
          <mxGeometry relative="1" as="geometry" />
        </mxCell>
        <mxCell id="oMIvc-D60YUNb1tI9s7J-42" value="&lt;b&gt;&lt;font style=&quot;font-size: 16px;&quot;&gt;Relu&lt;/font&gt;&lt;/b&gt;" style="rounded=0;whiteSpace=wrap;html=1;" vertex="1" parent="WIyWlLk6GJQsqaUBKTNV-1">
          <mxGeometry x="445" y="530" width="80" height="20" as="geometry" />
        </mxCell>
        <mxCell id="oMIvc-D60YUNb1tI9s7J-46" style="edgeStyle=orthogonalEdgeStyle;rounded=0;orthogonalLoop=1;jettySize=auto;html=1;" edge="1" parent="WIyWlLk6GJQsqaUBKTNV-1" source="oMIvc-D60YUNb1tI9s7J-44">
          <mxGeometry relative="1" as="geometry">
            <mxPoint x="485" y="720" as="targetPoint" />
          </mxGeometry>
        </mxCell>
        <mxCell id="oMIvc-D60YUNb1tI9s7J-44" value="&lt;font style=&quot;font-size: 20px;&quot;&gt;Linear&lt;/font&gt;" style="rounded=0;whiteSpace=wrap;html=1;fillColor=#fff2cc;strokeColor=#d6b656;" vertex="1" parent="WIyWlLk6GJQsqaUBKTNV-1">
          <mxGeometry x="425" y="600" width="120" height="60" as="geometry" />
        </mxCell>
      </root>
    </mxGraphModel>
  </diagram>
</mxfile>
